<svg xmlns="http://www.w3.org/2000/svg" viewBox="0 0 960 540">
  <rect width="960" height="540" fill="#122a62"/>
  <g fill="#1b3f86">
    <rect x="20" y="260" width="90" height="210"/>
    <rect x="130" y="220" width="70" height="250"/>
    <rect x="220" y="280" width="100" height="190"/>
    <rect x="340" y="200" width="90" height="270"/>
    <rect x="450" y="250" width="80" height="220"/>
    <rect x="550" y="210" width="120" height="260"/>
    <rect x="690" y="270" width="90" height="200"/>
    <rect x="800" y="230" width="140" height="240"/>
  </g>
  <g fill="#7dd3fc" opacity="0.35">
    <rect x="35" y="300" width="8" height="8"/>
    <rect x="150" y="260" width="8" height="8"/>
    <rect x="250" y="320" width="8" height="8"/>
    <rect x="365" y="240" width="8" height="8"/>
    <rect x="470" y="290" width="8" height="8"/>
    <rect x="580" y="250" width="8" height="8"/>
    <rect x="720" y="310" width="8" height="8"/>
    <rect x="840" y="270" width="8" height="8"/>
  </g>
</svg>
